<svg width="47" height="40" viewBox="0 0 47 40" fill="none" xmlns="http://www.w3.org/2000/svg">
<path fill-rule="evenodd" clip-rule="evenodd" d="M28.17 0.00606928C28.0677 0.0119624 27.984 0.0293944 27.984 0.0448153C27.984 0.0602715 27.7408 0.0930897 27.4435 0.117791C27.1462 0.142458 26.887 0.174887 26.8675 0.189814C26.848 0.204741 26.6685 0.228384 26.4685 0.242358C26.2686 0.256297 26.0971 0.280363 26.0875 0.295784C26.078 0.31124 25.9027 0.335236 25.6979 0.349104C25.4933 0.363008 25.3258 0.388345 25.3258 0.405424C25.3258 0.422539 25.262 0.436513 25.184 0.436513C25.0816 0.436513 25.0423 0.451228 25.0423 0.489445C25.0423 0.518558 25.0595 0.542377 25.0805 0.542377C25.1224 0.542377 25.8574 1.25865 25.8574 1.29945C25.8574 1.31328 25.9133 1.37856 25.9815 1.44455C26.0497 1.51051 26.1055 1.58009 26.1055 1.59918C26.1055 1.61828 26.1494 1.68066 26.203 1.73783C26.3718 1.91798 26.46 2.02938 26.46 2.06276C26.46 2.08051 26.4879 2.12409 26.522 2.15959C26.631 2.27297 26.7435 2.4125 26.7435 2.43428C26.7435 2.45238 26.8044 2.534 26.9567 2.71993C26.9759 2.74336 26.9916 2.7783 26.9916 2.79757C26.9916 2.81683 27.0115 2.84528 27.036 2.8608C27.0603 2.87633 27.1037 2.93406 27.1322 2.98911C27.1607 3.04416 27.2205 3.12832 27.265 3.17617C27.3096 3.22406 27.346 3.27745 27.346 3.29492C27.346 3.31235 27.366 3.33931 27.3903 3.35484C27.4147 3.37036 27.4665 3.44528 27.5055 3.52136C27.6288 3.76195 27.6457 3.78888 27.6734 3.78888C27.6883 3.78888 27.7004 3.81192 27.7004 3.84005C27.7004 3.86821 27.7213 3.90392 27.7468 3.91945C27.7723 3.93497 27.8141 3.99927 27.8397 4.06236C27.8653 4.12546 27.899 4.17705 27.9146 4.17705C27.9301 4.17705 27.9534 4.22469 27.9662 4.28291C27.9791 4.34114 28.0043 4.38878 28.0222 4.38878C28.0402 4.38878 28.0548 4.41065 28.0548 4.4374C28.0548 4.46412 28.0772 4.50449 28.1045 4.52704C28.1319 4.54962 28.1752 4.6389 28.2009 4.72546C28.2265 4.81199 28.2593 4.88281 28.2736 4.88281C28.288 4.88281 28.3102 4.93839 28.323 5.00632C28.3358 5.07425 28.3605 5.12983 28.3778 5.12983C28.3951 5.12983 28.4093 5.29656 28.4093 5.50035C28.4093 5.72383 28.3952 5.87088 28.3738 5.87088C28.3543 5.87088 28.3378 5.91456 28.3372 5.96792C28.3365 6.02127 28.3052 6.12848 28.2675 6.20611C28.2298 6.28375 28.1985 6.3618 28.1978 6.37959C28.1965 6.41615 28.1583 6.4605 27.9452 6.67368C27.8627 6.75615 27.7807 6.82365 27.763 6.82365C27.7453 6.82365 27.7088 6.84557 27.6819 6.87235C27.655 6.8991 27.5725 6.93234 27.4984 6.94614C27.4244 6.95997 27.3525 6.98968 27.3385 7.01216C27.3047 7.06665 26.2912 7.06943 26.2549 7.01513C26.241 6.99427 26.1538 6.95648 26.0612 6.93114C25.9687 6.9058 25.8929 6.87126 25.8929 6.85435C25.8929 6.83749 25.8725 6.82365 25.8476 6.82365C25.8227 6.82365 25.75 6.77601 25.6859 6.71779C25.6219 6.65956 25.5554 6.61193 25.5381 6.61193C25.5208 6.61193 25.4676 6.57618 25.42 6.53253C25.3321 6.452 25.0599 6.22302 25.0119 6.18928C24.9975 6.17912 24.9471 6.11525 24.8999 6.04732C24.8528 5.97939 24.7538 5.86551 24.6801 5.79423C24.6064 5.72298 24.5461 5.64232 24.5461 5.61493C24.5461 5.58758 24.5062 5.54397 24.4575 5.518C24.4087 5.49202 24.3689 5.4495 24.3689 5.42346C24.3689 5.39745 24.337 5.34897 24.298 5.31572C24.259 5.28248 24.2271 5.2358 24.2271 5.21194C24.2271 5.18812 24.2072 5.15594 24.1828 5.14041C24.1585 5.12489 24.0993 5.0566 24.0515 4.98867C23.9478 4.84152 23.9106 4.79406 23.8284 4.70383C23.7943 4.66642 23.7664 4.62214 23.7664 4.60545C23.7664 4.58875 23.7145 4.51772 23.6512 4.44764C23.5878 4.37752 23.5041 4.27748 23.4651 4.22532C23.4261 4.17313 23.3504 4.08413 23.2968 4.02753C23.2431 3.97093 23.1993 3.90942 23.1993 3.89086C23.1993 3.8723 23.1435 3.80151 23.0752 3.73358C23.007 3.66565 22.9512 3.6003 22.9512 3.58837C22.9512 3.57641 22.8954 3.51264 22.8271 3.44669C22.7589 3.3807 22.7031 3.31351 22.7031 3.29732C22.7031 3.28115 22.5954 3.15789 22.4639 3.02341C22.3323 2.88893 22.183 2.73221 22.1321 2.67515C21.9715 2.49515 21.5602 2.13232 21.4923 2.1109C21.4565 2.09957 21.4272 2.07737 21.4272 2.0616C21.4272 2.03746 21.0639 1.77252 20.8682 1.65395C20.8362 1.63454 20.7882 1.59883 20.7616 1.57455C20.735 1.55031 20.6929 1.53044 20.6681 1.53044C20.6432 1.53044 20.5861 1.49868 20.5411 1.45987C20.4962 1.42105 20.4392 1.38929 20.4146 1.38929C20.39 1.38929 20.3645 1.37736 20.358 1.36282C20.3423 1.32754 19.9672 1.14227 19.9115 1.14227C19.8874 1.14227 19.8677 1.1271 19.8677 1.10857C19.8677 1.09005 19.8119 1.06446 19.7437 1.05173C19.6755 1.03899 19.6196 1.01517 19.6196 0.998793C19.6196 0.98242 19.5638 0.9586 19.4956 0.945861C19.4274 0.933122 19.3715 0.91142 19.3715 0.897622C19.3715 0.883825 19.2679 0.851007 19.1412 0.824682C19.0145 0.798357 18.9108 0.764304 18.9108 0.749024C18.9108 0.733745 18.8311 0.710702 18.7336 0.697857C18.6361 0.684977 18.5564 0.662427 18.5564 0.647747C18.5564 0.633103 18.4647 0.609777 18.3526 0.59598C18.2405 0.582147 18.1328 0.558398 18.1134 0.543189C18.0713 0.510406 17.4611 0.436513 17.2322 0.436513C17.1441 0.436513 17.0621 0.420633 17.0501 0.401225C17.0202 0.353092 14.8471 0.353092 14.8172 0.401225C14.8052 0.420633 14.6966 0.436478 14.5759 0.436478C14.2609 0.436372 13.4173 0.51457 13.4173 0.543824C13.4173 0.55741 13.29 0.579606 13.1343 0.593122C12.9788 0.606637 12.8432 0.63095 12.8332 0.647147C12.8231 0.663345 12.7192 0.687658 12.6022 0.701174C12.4852 0.714689 12.3895 0.736921 12.3895 0.750542C12.3895 0.764198 12.2694 0.796592 12.1227 0.822529C11.976 0.848501 11.8483 0.882025 11.839 0.897057C11.8297 0.91209 11.7583 0.935134 11.6804 0.948226C11.6026 0.961318 11.5389 0.984749 11.5389 1.00031C11.5389 1.01584 11.483 1.03899 11.4148 1.05173C11.3466 1.06446 11.2908 1.08705 11.2908 1.10191C11.2908 1.11676 11.211 1.1493 11.1135 1.17414C11.0161 1.19902 10.9363 1.23251 10.9363 1.2486C10.9363 1.26465 10.8885 1.2883 10.83 1.30107C10.7715 1.31385 10.7237 1.33766 10.7237 1.354C10.7237 1.37034 10.6758 1.39416 10.6174 1.40693C10.5589 1.41971 10.511 1.44184 10.511 1.45609C10.511 1.47031 10.4552 1.5038 10.387 1.53044C10.3188 1.55709 10.2629 1.59181 10.2629 1.60762C10.2629 1.62339 10.2385 1.63631 10.2087 1.63631C10.1788 1.63631 10.1452 1.66013 10.134 1.68924C10.1228 1.71835 10.0909 1.74217 10.0631 1.74217C10.0353 1.74217 10.0034 1.76599 9.99223 1.7951C9.981 1.82422 9.95041 1.84804 9.92429 1.84804C9.89813 1.84804 9.83771 1.88375 9.79004 1.92743C9.74237 1.97112 9.63523 2.06241 9.55197 2.13034C9.46868 2.19827 9.37529 2.28264 9.34442 2.31783C9.31355 2.35301 9.21251 2.463 9.11993 2.56227C9.02732 2.66153 8.95158 2.75363 8.95158 2.76697C8.95158 2.78035 8.90594 2.8433 8.85015 2.90692C8.79433 2.97058 8.70264 3.11167 8.64636 3.22049C8.59004 3.32932 8.5333 3.42647 8.52022 3.43635C8.50714 3.44627 8.48549 3.49786 8.47209 3.55104C8.45869 3.60422 8.43349 3.64773 8.41613 3.64773C8.39872 3.64773 8.38451 3.66449 8.38451 3.68496C8.38451 3.70542 8.35311 3.79078 8.31476 3.87463C8.27638 3.95851 8.23448 4.0926 8.22162 4.17264C8.20875 4.25271 8.18547 4.3182 8.16987 4.3182C8.15428 4.3182 8.13057 4.40554 8.11717 4.51228C8.10378 4.61903 8.08017 4.70637 8.06475 4.70637C8.04934 4.70637 8.02534 4.85723 8.01145 5.04161C7.99759 5.22599 7.97218 5.37684 7.95499 5.37684C7.9378 5.37684 7.92377 5.76589 7.92377 6.2414C7.92377 6.71691 7.93741 7.10596 7.9541 7.10596C7.9708 7.10596 7.99525 7.23465 8.0084 7.3919C8.03119 7.66404 8.07822 7.77643 8.16934 7.77643C8.19022 7.77643 8.2073 7.7626 8.2073 7.7457C8.2073 7.72876 8.38674 7.70346 8.60602 7.68941C8.82534 7.67537 9.0207 7.65148 9.04019 7.63634C9.17451 7.53192 11.6121 7.52709 11.6786 7.63108C11.6895 7.64805 11.7661 7.67321 11.849 7.68698C11.9318 7.70077 11.9996 7.72481 11.9996 7.7404C11.9996 7.75604 12.0355 7.7782 12.0793 7.78974C12.4701 7.89239 12.6769 8.60799 12.4097 8.93307C12.1974 9.19131 11.688 9.65266 11.5088 9.74889C11.4584 9.77596 11.3955 9.81965 11.3691 9.84594C11.3428 9.87222 11.3052 9.89372 11.2857 9.89372C11.2662 9.89372 11.228 9.91358 11.2008 9.93783C11.0964 10.0311 11.0567 10.0566 10.9452 10.1022C10.8818 10.1281 10.83 10.162 10.83 10.1775C10.83 10.193 10.7822 10.2162 10.7237 10.229C10.6652 10.2417 10.6174 10.2655 10.6174 10.2819C10.6174 10.2982 10.5695 10.322 10.511 10.3348C10.4526 10.3476 10.4047 10.372 10.4047 10.3891C10.4047 10.4062 10.3409 10.4392 10.2629 10.4625C10.185 10.4857 10.1212 10.5169 10.1212 10.5317C10.1212 10.5465 10.0733 10.5691 10.0148 10.5818C9.95637 10.5946 9.90852 10.619 9.90852 10.636C9.90852 10.653 9.8527 10.6773 9.78447 10.69C9.71625 10.7028 9.66042 10.7258 9.66042 10.7413C9.66042 10.7568 9.58068 10.7897 9.48321 10.8146C9.38575 10.8395 9.306 10.8717 9.306 10.8863C9.306 10.9008 9.23423 10.9235 9.14652 10.9365C9.0588 10.9496 8.98703 10.9724 8.98703 10.9871C8.98703 11.0018 8.88751 11.025 8.76587 11.0387C8.64423 11.0524 8.52858 11.076 8.50891 11.091C8.48921 11.1061 8.34949 11.1389 8.19844 11.1639C8.04735 11.1889 7.92377 11.2216 7.92377 11.2366C7.92377 11.2515 7.85997 11.2745 7.782 11.2876C7.70402 11.3007 7.64023 11.3241 7.64023 11.3396C7.64023 11.3551 7.59635 11.3765 7.54276 11.3871C7.41418 11.4127 6.98941 11.56 6.96683 11.5869C6.93901 11.6201 6.34284 11.9051 6.30119 11.9051C6.28067 11.9051 6.25859 11.917 6.25207 11.9316C6.24558 11.9461 6.16081 11.9978 6.0637 12.0463C5.96658 12.0948 5.86575 12.1544 5.83963 12.1786C5.81355 12.2029 5.77183 12.2227 5.74699 12.2227C5.72211 12.2227 5.66497 12.2545 5.62003 12.2933C5.57509 12.3321 5.51853 12.3639 5.49435 12.3639C5.47018 12.3639 5.44123 12.3877 5.42999 12.4168C5.41879 12.4459 5.38519 12.4697 5.35532 12.4697C5.32547 12.4697 5.30105 12.4837 5.30105 12.5008C5.30105 12.5178 5.25321 12.5515 5.19473 12.5756C5.13625 12.5997 5.0884 12.6334 5.0884 12.6505C5.0884 12.6675 5.06398 12.6815 5.03414 12.6815C5.00426 12.6815 4.97066 12.7053 4.95946 12.7344C4.94823 12.7635 4.92037 12.7873 4.89755 12.7873C4.87472 12.7873 4.82875 12.8191 4.79537 12.8579C4.76198 12.8967 4.71116 12.9285 4.68241 12.9285C4.65367 12.9285 4.61309 12.9602 4.59221 12.9991C4.57134 13.0379 4.53675 13.0696 4.51527 13.0696C4.49383 13.0696 4.43935 13.1093 4.39416 13.1579C4.34901 13.2064 4.2978 13.2461 4.28036 13.2461C4.26292 13.2461 4.19119 13.3017 4.12094 13.3696C4.05069 13.4375 3.98321 13.4931 3.97095 13.4931C3.95872 13.4931 3.88571 13.5527 3.80873 13.6254C3.73175 13.6982 3.6037 13.8133 3.5242 13.8813C3.44471 13.9492 3.32952 14.059 3.26824 14.1254C3.20696 14.1918 3.12686 14.2712 3.09021 14.3019C3.0536 14.3325 2.97386 14.4119 2.913 14.4783C2.85219 14.5446 2.77262 14.624 2.73626 14.6547C2.62802 14.746 2.46604 14.9205 2.46587 14.9459C2.46576 14.959 2.39392 15.0411 2.3062 15.1284C2.21848 15.2158 2.14671 15.3034 2.14671 15.3233C2.14671 15.3431 2.11854 15.3801 2.08409 15.4055C2.04964 15.4308 1.99491 15.493 1.96248 15.5437C1.93002 15.5943 1.88246 15.6578 1.85676 15.6848C1.83103 15.7118 1.76217 15.8053 1.70369 15.8927C1.64521 15.98 1.58141 16.0708 1.56192 16.0944C1.54243 16.118 1.50964 16.1577 1.48905 16.1826C1.46849 16.2075 1.42869 16.2795 1.40066 16.3426C1.37262 16.4057 1.34129 16.4573 1.33101 16.4573C1.32074 16.4573 1.27282 16.5327 1.22447 16.6249C1.17617 16.7171 1.12467 16.7978 1.11003 16.8043C1.09543 16.8108 1.08345 16.8316 1.08345 16.8506C1.08345 16.8943 0.897841 17.2804 0.865234 17.3046C0.851908 17.3145 0.830005 17.3661 0.816608 17.4192C0.803211 17.4724 0.779606 17.5159 0.764154 17.5159C0.748736 17.5159 0.71698 17.5953 0.693589 17.6924C0.670197 17.7894 0.637696 17.8688 0.621358 17.8688C0.604983 17.8688 0.580847 17.9403 0.567698 18.0276C0.554549 18.115 0.531051 18.1864 0.515457 18.1864C0.499898 18.1864 0.475974 18.2539 0.462329 18.3364C0.448648 18.4189 0.42352 18.5037 0.406472 18.5248C0.389425 18.5459 0.356251 18.6888 0.332824 18.8423C0.309361 18.9959 0.277853 19.1301 0.262755 19.1405C0.247657 19.1509 0.224655 19.3177 0.211577 19.511C0.198499 19.7044 0.175603 19.8785 0.160682 19.8979C0.145761 19.9173 0.121908 20.1793 0.107696 20.4801C0.0917118 20.8181 0.0666542 21.0367 0.0421637 21.0523C-0.0136929 21.0877 -0.0142245 24.5654 0.0415967 24.6013C0.0645277 24.616 0.0911093 24.8162 0.105782 25.0845C0.119569 25.3364 0.143457 25.5507 0.158874 25.5609C0.174292 25.571 0.198109 25.7297 0.211754 25.9136C0.225399 26.0974 0.24872 26.2562 0.263535 26.2665C0.27835 26.2767 0.311523 26.4438 0.337254 26.6379C0.36295 26.832 0.396797 27.0071 0.412462 27.027C0.428128 27.0469 0.45198 27.1461 0.465519 27.2475C0.479022 27.3489 0.502131 27.4319 0.516875 27.4319C0.531583 27.4319 0.55462 27.5192 0.568017 27.626C0.581414 27.7327 0.604239 27.8201 0.618735 27.8201C0.633266 27.8201 0.665731 27.9233 0.69093 28.0494C0.71613 28.1756 0.749126 28.2788 0.764295 28.2788C0.779465 28.2788 0.802644 28.3503 0.815793 28.4376C0.828942 28.5249 0.8529 28.5964 0.869027 28.5964C0.885153 28.5964 0.908828 28.652 0.921623 28.7199C0.934417 28.7878 0.958128 28.8434 0.974289 28.8434C0.990486 28.8434 1.01328 28.891 1.02497 28.9493C1.03667 29.0075 1.07852 29.1257 1.11801 29.212C1.15749 29.2983 1.18978 29.3856 1.18978 29.4061C1.18978 29.4265 1.20445 29.4433 1.22242 29.4433C1.24035 29.4433 1.26555 29.4909 1.27838 29.5492C1.29121 29.6074 1.31389 29.655 1.32875 29.655C1.3436 29.655 1.37489 29.7186 1.39825 29.7962C1.4216 29.8738 1.45602 29.9373 1.47473 29.9373C1.49344 29.9373 1.50876 29.96 1.50876 29.9878C1.50876 30.0155 1.53059 30.0599 1.55724 30.0864C1.58393 30.113 1.61689 30.1697 1.6305 30.2125C1.64414 30.2552 1.67016 30.2902 1.68834 30.2902C1.70652 30.2902 1.72141 30.3112 1.72141 30.3368C1.72141 30.3761 1.91584 30.665 2.03932 30.8092C2.05942 30.8327 2.07583 30.8683 2.07583 30.8883C2.07583 30.9084 2.10773 30.9446 2.14671 30.9689C2.1857 30.9931 2.2176 31.0328 2.2176 31.057C2.2176 31.0812 2.28136 31.1607 2.35929 31.2338C2.43723 31.3068 2.50103 31.3798 2.50106 31.3961C2.50117 31.4471 3.37279 32.2663 3.42691 32.2663C3.44403 32.2663 3.48809 32.2941 3.52473 32.3281C3.64269 32.4373 3.75489 32.5134 3.79817 32.5134C3.82138 32.5134 3.84953 32.5372 3.86076 32.5663C3.87196 32.5954 3.90556 32.6192 3.93544 32.6192C3.96528 32.6192 3.9897 32.6332 3.9897 32.6503C3.9897 32.6673 4.04155 32.7023 4.10489 32.7281C4.16826 32.7539 4.24116 32.7956 4.26689 32.8207C4.29266 32.8457 4.33653 32.8662 4.36436 32.8662C4.39221 32.8662 4.415 32.8818 4.415 32.9009C4.415 32.9199 4.45488 32.9454 4.50361 32.9576C4.55234 32.9698 4.59221 32.9924 4.59221 33.008C4.59221 33.0235 4.67196 33.0565 4.76942 33.0814C4.86689 33.1062 4.94663 33.1382 4.94663 33.1524C4.94663 33.1666 4.99448 33.1887 5.05296 33.2015C5.11144 33.2143 5.15929 33.2393 5.15929 33.2572C5.15929 33.2751 5.1841 33.2897 5.2144 33.2897C5.2447 33.2897 5.33841 33.321 5.42262 33.3592C5.50687 33.3974 5.6419 33.4391 5.72274 33.452C5.80355 33.4649 5.87798 33.4888 5.88808 33.505C5.89822 33.5213 5.98558 33.5451 6.08223 33.5579C6.17888 33.5707 6.25799 33.5938 6.25799 33.6093C6.25799 33.6248 6.34968 33.6487 6.46178 33.6625C6.57385 33.6762 6.67387 33.7001 6.68397 33.7157C6.6941 33.7312 6.90941 33.7639 7.16243 33.7884C7.41549 33.8128 7.63388 33.8495 7.64781 33.87C7.68325 33.9222 10.5393 33.9218 10.5744 33.8696C10.5883 33.8489 10.8625 33.8116 11.1844 33.7866C11.5061 33.7615 11.7852 33.7284 11.8047 33.713C11.8242 33.6976 11.9677 33.6735 12.1236 33.6595C12.2796 33.6455 12.4231 33.6217 12.4426 33.6066C12.4621 33.5915 12.6017 33.5677 12.7527 33.5537C12.9038 33.5398 13.0274 33.5174 13.0274 33.5039C13.0274 33.4904 13.2188 33.4582 13.4527 33.4323C13.6866 33.4064 13.878 33.373 13.878 33.3581C13.878 33.3432 13.9976 33.3198 14.1438 33.3062C14.29 33.2926 14.4097 33.269 14.4097 33.2539C14.4097 33.2387 14.5213 33.2151 14.6578 33.2015C14.7942 33.1878 14.9058 33.1655 14.9058 33.1517C14.9058 33.138 15.0494 33.1065 15.2248 33.0818C15.4003 33.0571 15.5438 33.0238 15.5438 33.0078C15.5438 32.9918 15.6235 32.9678 15.721 32.9545C15.8184 32.9411 15.9062 32.9172 15.9161 32.9013C15.926 32.8854 15.9977 32.8617 16.0756 32.8486C16.1535 32.8355 16.2172 32.8139 16.2172 32.8006C16.2172 32.7873 16.3244 32.7562 16.4554 32.7315C16.5864 32.7067 16.702 32.6733 16.7123 32.6572C16.7226 32.6411 16.7989 32.6166 16.8817 32.6028C16.9646 32.589 17.0324 32.565 17.0324 32.5495C17.0324 32.5339 17.0922 32.5101 17.1653 32.4965C17.2384 32.4829 17.3141 32.4594 17.3336 32.4442C17.3531 32.4291 17.4528 32.3972 17.5551 32.3733C17.6575 32.3494 17.7412 32.3166 17.7412 32.3003C17.7412 32.284 17.813 32.26 17.9007 32.2469C17.9884 32.2338 18.0602 32.209 18.0602 32.1918C18.0602 32.1746 18.085 32.1605 18.1153 32.1605C18.1456 32.1605 18.2373 32.1305 18.3191 32.0939C18.4009 32.0573 18.5236 32.0156 18.5918 32.0012C18.66 31.9868 18.7473 31.9532 18.7858 31.9266C18.8242 31.9 18.892 31.8782 18.9364 31.8782C18.9808 31.8782 19.0171 31.8637 19.0171 31.846C19.0171 31.8283 19.0809 31.8031 19.1589 31.79C19.2369 31.7768 19.3007 31.7522 19.3007 31.7353C19.3007 31.7184 19.3964 31.6848 19.5133 31.6608C19.6303 31.6367 19.726 31.6061 19.726 31.5927C19.726 31.5794 19.7818 31.558 19.85 31.5453C19.9182 31.5325 19.9741 31.5083 19.9741 31.4915C19.9741 31.4747 20.0379 31.4502 20.1158 31.4371C20.1938 31.424 20.2576 31.402 20.2576 31.3883C20.2576 31.3746 20.3533 31.3423 20.4702 31.3164C20.5872 31.2906 20.6829 31.257 20.6829 31.2417C20.6829 31.2264 20.7467 31.2032 20.8247 31.1901C20.9026 31.1769 20.9664 31.1517 20.9664 31.134C20.9664 31.0901 21.3821 31.093 21.4095 31.1371C21.4215 31.1565 21.4541 31.1724 21.482 31.1724C21.5675 31.1724 21.8106 31.3619 21.8329 31.4459C21.8444 31.4896 21.8681 31.5253 21.8855 31.5253C21.9029 31.5253 21.9279 31.5888 21.9411 31.6663C21.9542 31.7438 21.9795 31.8162 21.9973 31.8272C22.0422 31.8547 22.0392 32.5487 21.9943 32.5487C21.9748 32.5487 21.9583 32.5923 21.9576 32.6457C21.9569 32.6991 21.9256 32.8063 21.8879 32.8839C21.8503 32.9615 21.8189 33.0449 21.8183 33.0692C21.8176 33.0934 21.803 33.1133 21.7859 33.1133C21.7688 33.1133 21.7345 33.162 21.7097 33.2215C21.6546 33.354 21.5662 33.4587 21.1791 33.8499C20.9104 34.1215 20.8119 34.2059 20.6182 34.3307C20.5881 34.3501 20.5305 34.399 20.4902 34.4394C20.45 34.4798 20.3653 34.5353 20.3019 34.5627C20.2385 34.5901 20.1867 34.6246 20.1867 34.6393C20.1867 34.6539 20.1636 34.6659 20.1353 34.6659C20.107 34.6659 20.0712 34.6861 20.0556 34.7108C20.04 34.7355 19.9873 34.7755 19.9386 34.7997C19.8899 34.824 19.7862 34.8828 19.7082 34.9305C19.6303 34.9781 19.5385 35.0273 19.5045 35.0397C19.4704 35.0522 19.4424 35.0746 19.4424 35.0897C19.4424 35.1047 19.4026 35.127 19.3538 35.1392C19.3051 35.1514 19.2652 35.1757 19.2652 35.1932C19.2652 35.2107 19.2094 35.2434 19.1412 35.2658C19.0729 35.2882 19.0171 35.3212 19.0171 35.3392C19.0171 35.3571 18.9956 35.3717 18.9694 35.3717C18.9431 35.3717 18.8849 35.4035 18.8399 35.4423C18.795 35.4811 18.7367 35.5129 18.7104 35.5129C18.6842 35.5129 18.6627 35.5258 18.6627 35.5415C18.6627 35.5574 18.6069 35.5921 18.5387 35.6187C18.4704 35.6454 18.4146 35.6801 18.4146 35.6959C18.4146 35.7117 18.3915 35.7246 18.3632 35.7246C18.3349 35.7246 18.2991 35.7448 18.2835 35.7694C18.2679 35.7941 18.2152 35.8341 18.1665 35.8584C18.1178 35.8826 18.0141 35.9414 17.9361 35.9891C17.8582 36.0368 17.7664 36.0859 17.7324 36.0984C17.6983 36.1108 17.6703 36.135 17.6703 36.1522C17.6703 36.1693 17.6488 36.1833 17.6226 36.1833C17.5963 36.1833 17.5381 36.2151 17.4931 36.2539C17.4482 36.2927 17.3899 36.3245 17.3636 36.3245C17.2865 36.3245 17.31 36.4412 17.4051 36.5311C17.4535 36.5768 17.4931 36.6269 17.4931 36.6425C17.4931 36.7 18.4395 37.6727 18.633 37.8142C18.7583 37.9057 19.0276 38.1148 19.0907 38.1694C19.1214 38.196 19.1733 38.228 19.2059 38.2404C19.2385 38.2529 19.2652 38.2795 19.2652 38.2995C19.2652 38.3195 19.288 38.3359 19.3159 38.3359C19.3437 38.3359 19.3876 38.3558 19.4133 38.38C19.4391 38.4043 19.508 38.4479 19.5665 38.477C19.625 38.5061 19.6808 38.5382 19.6905 38.5483C19.7003 38.5584 19.7481 38.5861 19.7968 38.6098C19.9047 38.6623 20.0209 38.7342 20.0449 38.7631C20.0547 38.7748 20.1225 38.8038 20.1956 38.8276C20.2687 38.8513 20.3285 38.8836 20.3285 38.8994C20.3285 38.9152 20.3723 38.9385 20.4259 38.9513C20.4796 38.964 20.6032 39.0115 20.7006 39.0567C20.9717 39.1825 21.0698 39.2181 21.1453 39.2181C21.1834 39.2181 21.2145 39.2326 21.2145 39.2503C21.2145 39.268 21.2783 39.2932 21.3563 39.3063C21.4343 39.3194 21.4981 39.3426 21.4981 39.3578C21.4981 39.373 21.5654 39.3962 21.6476 39.4093C21.7299 39.4224 21.8064 39.448 21.8177 39.4661C21.829 39.4843 21.961 39.5182 22.1111 39.5414C22.2613 39.5646 22.3841 39.5959 22.3841 39.6109C22.3841 39.6258 22.4798 39.6488 22.5968 39.662C22.7137 39.6752 22.8094 39.6981 22.8094 39.713C22.8094 39.7279 22.937 39.7513 23.093 39.7651C23.2489 39.7788 23.3765 39.8016 23.3765 39.8157C23.3765 39.8427 24.2028 39.924 24.477 39.9239C24.5656 39.9239 24.6551 39.9407 24.6758 39.9613C24.7279 40.0131 27.4993 40.0128 27.5167 39.9609C27.5235 39.9406 27.6107 39.9239 27.7104 39.9239C28.0086 39.9239 28.87 39.8442 28.87 39.8167C28.87 39.8026 29.0055 39.7798 29.1711 39.7661C29.3367 39.7524 29.4802 39.7283 29.49 39.7126C29.4997 39.6969 29.6194 39.6729 29.7559 39.6592C29.8924 39.6456 30.0042 39.6227 30.0042 39.6084C30.0042 39.5941 30.1397 39.5613 30.3054 39.5357C30.4711 39.51 30.6067 39.4775 30.6067 39.4635C30.6067 39.4494 30.6944 39.427 30.8016 39.4137C30.9088 39.4004 30.9965 39.3762 30.9965 39.36C30.9965 39.3438 31.0763 39.3197 31.1737 39.3063C31.2712 39.293 31.351 39.2706 31.351 39.2566C31.351 39.2425 31.4546 39.2105 31.5813 39.1855C31.708 39.1604 31.8117 39.1275 31.8117 39.1124C31.8117 39.0973 31.8835 39.0742 31.9712 39.0611C32.0589 39.048 32.1307 39.0238 32.1307 39.0073C32.1307 38.9908 32.1945 38.9666 32.2724 38.9534C32.3504 38.9403 32.4142 38.9158 32.4142 38.899C32.4142 38.8822 32.474 38.8577 32.5471 38.8446C32.6202 38.8315 32.7199 38.8015 32.7686 38.7778C32.9973 38.6668 33.113 38.6189 33.2028 38.5979C33.2564 38.5855 33.3003 38.5627 33.3003 38.5473C33.3003 38.532 33.38 38.5003 33.4775 38.477C33.5749 38.4538 33.6547 38.4221 33.6547 38.4068C33.6547 38.3914 33.6946 38.3689 33.7433 38.3567C33.792 38.3445 33.8319 38.319 33.8319 38.2999C33.8319 38.2809 33.8487 38.2653 33.8693 38.2653C33.9469 38.2653 34.7013 37.9009 34.7534 37.8382C34.7631 37.8264 34.8345 37.7962 34.9119 37.7711C34.9893 37.7459 35.0725 37.7079 35.0968 37.6866C35.2148 37.5826 35.2503 37.5607 35.3351 37.5395C35.3855 37.5269 35.4268 37.5044 35.4268 37.4894C35.4268 37.4745 35.4786 37.4414 35.542 37.4159C35.6053 37.3905 35.6699 37.3489 35.6855 37.3234C35.7011 37.298 35.737 37.2773 35.7653 37.2773C35.7935 37.2773 35.8167 37.2614 35.8167 37.242C35.8167 37.2226 35.8398 37.2067 35.868 37.2067C35.8963 37.2067 35.9322 37.1868 35.9478 37.1626C35.9634 37.1383 36.0679 37.0714 36.1799 37.0138C36.292 36.9563 36.3837 36.8967 36.3837 36.8815C36.3837 36.8663 36.4069 36.8538 36.4351 36.8538C36.4634 36.8538 36.4993 36.8339 36.5149 36.8096C36.5305 36.7853 36.5884 36.7422 36.6437 36.7138C36.699 36.6854 36.7835 36.6259 36.8316 36.5816C36.8797 36.5372 36.9333 36.5009 36.9509 36.5009C36.9684 36.5009 36.9955 36.4807 37.011 36.4561C37.0266 36.4314 37.0832 36.3921 37.1369 36.3686C37.1905 36.3452 37.2343 36.3098 37.2343 36.2899C37.2343 36.2701 37.2588 36.2539 37.2886 36.2539C37.3185 36.2539 37.3521 36.2301 37.3633 36.201C37.3745 36.1719 37.4037 36.148 37.4281 36.148C37.4525 36.148 37.5346 36.093 37.6104 36.0258C37.8508 35.8125 37.8639 35.8026 37.934 35.7804C37.9718 35.7685 38.0239 35.7193 38.0498 35.6711C38.0757 35.6229 38.1173 35.5834 38.1423 35.5834C38.1672 35.5834 38.2266 35.5477 38.2743 35.504C38.3506 35.4341 38.4505 35.3499 38.7357 35.1152C38.9526 34.9367 39.1894 34.7232 39.4788 34.4454C39.6556 34.2756 39.8117 34.1366 39.8255 34.1366C39.8594 34.1366 40.727 33.2768 40.7697 33.2009C40.7882 33.1679 40.9493 32.9933 41.1277 32.813C41.306 32.6327 41.4519 32.4754 41.4519 32.4633C41.4519 32.4512 41.5357 32.3553 41.638 32.2504C41.8428 32.0402 42.0651 31.7812 42.0849 31.7295C42.0918 31.7113 42.1477 31.6436 42.2089 31.579C42.3919 31.3861 42.5506 31.1942 42.5506 31.166C42.5506 31.1515 42.5982 31.0874 42.6564 31.0236C42.8395 30.823 42.8621 30.793 42.8852 30.7204C42.8976 30.6815 42.9311 30.6407 42.9596 30.6298C42.9881 30.6189 43.0114 30.5857 43.0114 30.556C43.0114 30.5263 43.0277 30.5019 43.0476 30.5019C43.0675 30.5019 43.103 30.4583 43.1266 30.4049C43.1501 30.3515 43.1897 30.2952 43.2144 30.2796C43.2392 30.2641 43.2595 30.2371 43.2595 30.2197C43.2595 30.2022 43.2959 30.1489 43.3405 30.101C43.385 30.0531 43.4448 29.969 43.4733 29.9139C43.5018 29.8589 43.5451 29.8011 43.5695 29.7856C43.594 29.7701 43.6139 29.7357 43.6139 29.7092C43.6139 29.6826 43.6259 29.6556 43.6405 29.6491C43.6799 29.6317 43.8266 29.4164 43.8266 29.3759C43.8266 29.3567 43.8468 29.3283 43.8716 29.3127C43.8964 29.2972 43.9361 29.2448 43.96 29.1963C44.0139 29.0864 44.0796 28.9839 44.1343 28.9241C44.1574 28.8989 44.1875 28.8434 44.201 28.8007C44.2146 28.7581 44.2476 28.7015 44.2743 28.6749C44.3009 28.6484 44.3227 28.6039 44.3227 28.5762C44.3227 28.5485 44.3359 28.5258 44.352 28.5258C44.3681 28.5258 44.4279 28.4306 44.4849 28.3142C44.5419 28.1978 44.6005 28.1025 44.6151 28.1024C44.6297 28.1024 44.6417 28.0797 44.6417 28.0519C44.6417 28.0242 44.6617 27.9805 44.6861 27.9549C44.7446 27.8935 44.9253 27.5313 44.9253 27.4755C44.9253 27.4515 44.9395 27.4319 44.9569 27.4319C44.9742 27.4319 44.9994 27.3884 45.0128 27.3352C45.0262 27.282 45.0481 27.2304 45.0613 27.2205C45.1037 27.1889 45.386 26.5805 45.386 26.5208C45.386 26.5011 45.398 26.4797 45.4126 26.4732C45.4469 26.4581 45.6341 26.0001 45.6341 25.9314C45.6341 25.9027 45.6493 25.8792 45.6679 25.8792C45.6866 25.8792 45.7123 25.8236 45.725 25.7557C45.7378 25.6878 45.7623 25.6322 45.7794 25.6322C45.7965 25.6322 45.8207 25.5687 45.8331 25.491C45.8456 25.4134 45.8677 25.3499 45.8823 25.3499C45.8969 25.3499 45.93 25.2546 45.956 25.1382C45.9819 25.0217 46.0156 24.9264 46.0308 24.9264C46.0461 24.9264 46.0688 24.8629 46.0812 24.7853C46.0937 24.7076 46.1163 24.6441 46.1315 24.6441C46.1467 24.6441 46.1701 24.5647 46.1835 24.4677C46.1968 24.3706 46.2208 24.2912 46.2367 24.2912C46.2526 24.2912 46.2845 24.1801 46.3075 24.0442C46.3305 23.9084 46.362 23.7972 46.3775 23.7972C46.393 23.7972 46.4166 23.7099 46.43 23.6031C46.4434 23.4964 46.4673 23.409 46.4832 23.409C46.499 23.409 46.5233 23.3178 46.5372 23.2061C46.5511 23.0945 46.5755 22.9873 46.5916 22.9678C46.6076 22.9483 46.6412 22.7657 46.6661 22.562C46.6911 22.3583 46.7233 22.1833 46.7377 22.1733C46.752 22.1631 46.7749 22.0282 46.7884 21.8733C46.802 21.7184 46.8258 21.5755 46.8414 21.5557C46.857 21.5359 46.8809 21.3374 46.8945 21.1146C46.9081 20.8918 46.9368 20.6876 46.9582 20.6609C47.0135 20.5918 47.0141 18.0525 46.9589 18.0175C46.9363 18.0033 46.9079 17.8273 46.8934 17.613C46.8793 17.4043 46.8554 17.226 46.8403 17.2167C46.8253 17.2075 46.8015 17.0526 46.7874 16.8727C46.7733 16.6927 46.7493 16.5296 46.734 16.5102C46.7187 16.4908 46.6857 16.2646 46.6606 16.0074C46.6355 15.7502 46.6033 15.5398 46.589 15.5398C46.5748 15.5398 46.5518 15.3969 46.5379 15.2222C46.524 15.0475 46.5003 14.9046 46.4851 14.9046C46.47 14.9046 46.4464 14.7696 46.4326 14.6047C46.4188 14.4397 46.3955 14.3047 46.381 14.3047C46.3664 14.3047 46.3339 14.0983 46.3088 13.846C46.2838 13.5937 46.2513 13.3872 46.2368 13.3872C46.2222 13.3872 46.1997 13.3078 46.1868 13.2108C46.1739 13.1138 46.1497 13.0344 46.133 13.0344C46.1164 13.0344 46.0923 12.9788 46.0795 12.9108C46.0667 12.8429 46.0443 12.7873 46.0297 12.7873C46.0151 12.7873 45.9819 12.6921 45.956 12.5756C45.93 12.4592 45.8962 12.3639 45.8809 12.3639C45.8655 12.3639 45.8422 12.3004 45.829 12.2227C45.8158 12.1451 45.7923 12.0816 45.7768 12.0816C45.7612 12.0816 45.7377 12.0101 45.7245 11.9228C45.7114 11.8354 45.6874 11.764 45.6713 11.764C45.6552 11.764 45.6309 11.7045 45.6174 11.6317C45.6039 11.5589 45.5714 11.4517 45.5454 11.3935C45.5193 11.3352 45.4877 11.2479 45.4752 11.1994C45.4446 11.0808 45.3796 10.9524 45.3501 10.9524C45.337 10.9524 45.3151 11.3369 45.3015 11.8069C45.288 12.2769 45.2638 12.6699 45.2478 12.6802C45.2318 12.6906 45.2072 12.8738 45.1931 13.0872C45.179 13.3007 45.1548 13.4912 45.1394 13.5107C45.124 13.5301 45.1 13.681 45.0861 13.846C45.0722 14.011 45.0483 14.1618 45.0331 14.1812C45.018 14.2006 44.9847 14.3952 44.9591 14.6135C44.9336 14.8319 44.9012 15.0105 44.8872 15.0105C44.8731 15.0105 44.8504 15.1216 44.8367 15.2575C44.8229 15.3934 44.799 15.5045 44.7834 15.5045C44.7678 15.5045 44.7439 15.5998 44.7303 15.7163C44.7168 15.8328 44.6927 15.9361 44.6768 15.9458C44.661 15.9555 44.6292 16.0746 44.6062 16.2104C44.5832 16.3462 44.552 16.4573 44.5367 16.4573C44.5215 16.4573 44.4985 16.5367 44.4856 16.6337C44.4727 16.7308 44.4476 16.8102 44.43 16.8102C44.4124 16.8102 44.3872 16.8816 44.3741 16.969C44.3609 17.0563 44.3386 17.1278 44.3244 17.1278C44.3102 17.1278 44.2776 17.2151 44.2519 17.3219C44.2261 17.4286 44.1924 17.5159 44.1769 17.5159C44.1614 17.5159 44.1383 17.5715 44.1255 17.6394C44.1127 17.7074 44.0893 17.763 44.0735 17.763C44.0577 17.763 44.0343 17.8106 44.0215 17.8688C44.0087 17.927 43.9852 17.9747 43.9694 17.9747C43.9535 17.9747 43.9299 18.0171 43.9168 18.0689C43.9037 18.1208 43.8621 18.2023 43.8244 18.2501C43.7866 18.298 43.7557 18.3571 43.7557 18.3815C43.7557 18.4059 43.7317 18.435 43.7025 18.4462C43.6733 18.4574 43.6493 18.4908 43.6493 18.5206C43.6493 18.5503 43.633 18.5746 43.6132 18.5746C43.5932 18.5746 43.5573 18.6182 43.5334 18.6716C43.4879 18.7731 43.3965 18.8699 43.2388 18.9836C43.1874 19.0206 43.1265 19.0668 43.1034 19.0863C43.0365 19.1426 42.9298 19.2069 42.8342 19.2483C42.7156 19.2998 42.0818 19.2737 42.0627 19.2167C42.0549 19.1935 42.0321 19.1745 42.0119 19.1745C41.9524 19.1745 41.7124 18.9174 41.6826 18.8216C41.6674 18.7731 41.6403 18.724 41.6224 18.7124C41.6044 18.7009 41.5804 18.6016 41.569 18.4919C41.5577 18.3821 41.5346 18.2923 41.5179 18.2923C41.5011 18.2923 41.4874 18.1732 41.4874 18.0276C41.4874 17.8821 41.5011 17.763 41.5178 17.763C41.5345 17.763 41.5594 17.6007 41.5731 17.4023C41.5868 17.2039 41.6114 17.0253 41.6277 17.0053C41.644 16.9853 41.6772 16.7864 41.7015 16.5632C41.7258 16.34 41.7633 16.146 41.7849 16.1322C41.8395 16.0971 41.8401 13.8538 41.7855 13.8182C41.7636 13.8039 41.7275 13.5416 41.702 13.2108C41.6773 12.8906 41.6446 12.6127 41.6293 12.5933C41.6141 12.5738 41.5901 12.4071 41.576 12.2227C41.5619 12.0383 41.5381 11.8716 41.5231 11.8522C41.5081 11.8328 41.4843 11.674 41.4703 11.4993C41.4563 11.3246 41.4325 11.1659 41.4176 11.1464C41.4026 11.127 41.3706 10.9047 41.3465 10.6524C41.3224 10.4001 41.2901 10.1778 41.2749 10.1584C41.2596 10.139 41.2358 10.008 41.2219 9.86725C41.208 9.72652 41.1844 9.61141 41.1694 9.61141C41.1544 9.61141 41.131 9.52845 41.1175 9.42703C41.104 9.32561 41.0802 9.22638 41.0647 9.20648C41.0491 9.18658 41.0258 9.12267 41.0128 9.06445C40.9727 8.88384 40.8347 8.46547 40.8093 8.44683C40.7959 8.43706 40.7738 8.36959 40.7601 8.29686C40.7464 8.2241 40.7241 8.1646 40.7104 8.1646C40.6968 8.1646 40.6644 8.08121 40.6384 7.97934C40.6125 7.87746 40.5815 7.78614 40.5697 7.77643C40.5331 7.7464 40.4278 7.51685 40.4038 7.41473C40.3913 7.36137 40.3674 7.31769 40.3508 7.31769C40.3342 7.31769 40.3015 7.25417 40.2782 7.17653C40.2548 7.0989 40.2235 7.03538 40.2087 7.03538C40.1938 7.03538 40.1711 6.98774 40.1583 6.92952C40.1455 6.87129 40.1215 6.82365 40.1051 6.82365C40.0887 6.82365 40.0648 6.77601 40.052 6.71779C40.0391 6.65956 40.0152 6.61193 39.9987 6.61193C39.9823 6.61193 39.9504 6.55635 39.9279 6.48842C39.9054 6.42049 39.8723 6.36491 39.8543 6.36491C39.8363 6.36491 39.8216 6.34222 39.8216 6.31448C39.8216 6.28678 39.7998 6.24235 39.7731 6.21582C39.7464 6.18924 39.7124 6.12933 39.6976 6.0826C39.6827 6.03588 39.6527 5.97762 39.6309 5.95313C39.5399 5.85101 39.5153 5.81194 39.4674 5.69444C39.4397 5.62651 39.4004 5.55162 39.3801 5.52805C39.2768 5.40807 39.2545 5.37804 39.2545 5.35832C39.2545 5.34653 39.2147 5.28481 39.1659 5.22119C39.1172 5.15756 39.0773 5.08716 39.0773 5.06476C39.0773 5.04231 39.0617 5.02396 39.0426 5.02396C39.0235 5.02396 38.9981 4.98543 38.9862 4.93828C38.9743 4.89117 38.9421 4.84403 38.9146 4.83355C38.8871 4.82303 38.8647 4.79014 38.8647 4.7604C38.8647 4.73068 38.8479 4.70637 38.8274 4.70637C38.8069 4.70637 38.7734 4.65873 38.753 4.60051C38.7326 4.54228 38.7011 4.49464 38.6829 4.49464C38.6647 4.49464 38.6399 4.46885 38.6277 4.43737C38.6156 4.40586 38.5642 4.33475 38.5137 4.27938C38.463 4.22402 38.3658 4.10679 38.2976 4.01885C38.2294 3.93091 38.0978 3.77865 38.0052 3.68044C37.9126 3.58223 37.8366 3.49101 37.8363 3.47774C37.836 3.46451 37.7157 3.34249 37.569 3.20663C37.4224 3.07077 37.2225 2.8842 37.1249 2.79199C37.0273 2.69978 36.9339 2.62437 36.9174 2.62437C36.9009 2.62437 36.8498 2.58496 36.8039 2.53675C36.758 2.48858 36.7093 2.44889 36.6957 2.44853C36.682 2.44822 36.6316 2.41166 36.5835 2.3673C36.5355 2.32294 36.4509 2.26341 36.3956 2.23504C36.3403 2.20663 36.2824 2.16351 36.2668 2.13923C36.2512 2.11492 36.2153 2.09505 36.187 2.09505C36.1588 2.09505 36.1356 2.07917 36.1356 2.05976C36.1356 2.04036 36.1141 2.02448 36.0879 2.02448C36.0616 2.02448 36.0045 1.99371 35.9609 1.95605C35.9173 1.91844 35.8352 1.87747 35.7783 1.86504C35.7214 1.85259 35.6749 1.82909 35.6749 1.81275C35.6749 1.79641 35.627 1.77259 35.5686 1.75982C35.5101 1.74704 35.4622 1.72322 35.4622 1.70688C35.4622 1.69055 35.4144 1.66673 35.3559 1.65395C35.2974 1.64118 35.2496 1.61672 35.2496 1.59964C35.2496 1.58253 35.1858 1.54953 35.1078 1.52628C35.0298 1.50302 34.966 1.47187 34.966 1.45708C34.966 1.44229 34.9182 1.41971 34.8597 1.40693C34.8012 1.39416 34.7534 1.36978 34.7534 1.3528C34.7534 1.33579 34.6976 1.31148 34.6293 1.29874C34.5611 1.286 34.5053 1.26292 34.5053 1.24747C34.5053 1.23201 34.4256 1.19902 34.3281 1.17414C34.2306 1.1493 34.1509 1.11676 34.1509 1.10191C34.1509 1.08705 34.0951 1.06446 34.0268 1.05173C33.9586 1.03899 33.9028 1.01443 33.9028 0.997205C33.9028 0.97995 33.8749 0.965728 33.8408 0.965623C33.8067 0.965481 33.7355 0.942967 33.6828 0.915548C33.63 0.88813 33.4984 0.845996 33.3904 0.821929C33.2823 0.797863 33.1939 0.765786 33.1939 0.750647C33.1939 0.735509 33.1222 0.71243 33.0345 0.699339C32.9467 0.686247 32.875 0.662921 32.875 0.647536C32.875 0.63215 32.7952 0.608648 32.6978 0.595309C32.6003 0.581971 32.5205 0.558292 32.5205 0.54273C32.5205 0.527133 32.385 0.494315 32.2193 0.469789C32.0536 0.445229 31.918 0.413082 31.918 0.398367C31.918 0.383616 31.8144 0.360502 31.6877 0.346987C31.5609 0.333472 31.4573 0.310005 31.4573 0.294832C31.4573 0.279658 31.3416 0.255909 31.2003 0.242076C31.059 0.228278 30.9274 0.2046 30.9079 0.189532C30.8673 0.158161 30.1416 0.0836324 29.8765 0.0836324C29.7791 0.0836324 29.6842 0.0692699 29.6657 0.0516612C29.6321 0.0197608 28.5219 -0.0140802 28.17 0.00606928Z" fill="#050632"/>
</svg>
